<?xml version="1.0" standalone="no"?>
<!DOCTYPE svg PUBLIC "-//W3C//DTD SVG 20010904//EN"
 "http://www.w3.org/TR/2001/REC-SVG-20010904/DTD/svg10.dtd">
<svg version="1.0" xmlns="http://www.w3.org/2000/svg"
 width="583.000000pt" height="667.000000pt" viewBox="0 0 583.000000 667.000000"
 preserveAspectRatio="xMidYMid meet">

<g transform="translate(0.000000,667.000000) scale(0.100000,-0.100000)"
fill="#000000" stroke="none">
<path d="M3524 6339 c-10 -12 -36 -32 -56 -45 -21 -14 -38 -30 -38 -37 0 -21
-44 -57 -68 -57 -13 0 -27 -10 -36 -27 -15 -30 -74 -89 -116 -117 -16 -10 -46
-16 -88 -16 -52 0 -69 -4 -96 -25 -40 -30 -51 -31 -101 -5 -49 25 -50 25 -90
-6 l-34 -26 -53 17 c-29 10 -71 28 -93 41 -72 41 -172 74 -207 68 -18 -3 -87
-24 -153 -46 -106 -35 -134 -40 -245 -45 -80 -4 -150 -1 -195 7 -38 7 -106 14
-150 17 -69 4 -93 1 -175 -26 -52 -17 -135 -40 -185 -52 -49 -11 -102 -27
-117 -35 -29 -15 -76 -96 -102 -176 -18 -56 -46 -192 -46 -228 0 -46 -27 -108
-77 -175 -53 -72 -168 -287 -189 -355 -8 -25 -14 -82 -14 -127 0 -45 -4 -93
-10 -107 -5 -14 -36 -55 -69 -90 -33 -35 -69 -83 -82 -107 -21 -41 -22 -53
-16 -198 l5 -154 45 -66 c66 -100 87 -139 80 -156 -10 -27 -61 -45 -143 -52
-92 -7 -94 -11 -54 -79 17 -29 41 -52 67 -66 46 -23 45 -24 -51 -57 -70 -25
-88 -22 -137 21 -56 49 -74 14 -30 -57 13 -22 25 -43 25 -47 0 -13 -43 -9 -73
7 -30 15 -30 16 -41 -37 -11 -49 -59 -30 -183 69 l-43 34 0 -46 c0 -56 12 -75
114 -187 l79 -88 98 0 c54 0 101 -4 104 -10 3 -5 19 -10 35 -10 19 0 30 -6 34
-17 7 -25 33 -150 56 -268 10 -55 31 -145 45 -200 15 -55 30 -116 34 -135 4
-19 29 -88 56 -153 43 -104 56 -126 121 -197 41 -44 74 -82 74 -84 0 -2 -30
-21 -66 -42 -78 -46 -127 -92 -200 -191 -85 -115 -143 -155 -329 -227 -87 -34
-201 -93 -295 -152 l-45 -29 -3 -842 -2 -843 2915 0 2915 0 0 543 0 544 -61
51 c-64 54 -126 80 -250 102 -115 21 -165 46 -208 103 -22 29 -48 79 -59 112
-73 213 -151 381 -206 439 l-34 37 -98 -2 c-108 -3 -114 0 -136 74 -13 44 -26
53 -88 62 -25 4 -47 8 -51 11 -6 3 -302 69 -359 80 -20 4 -30 -3 -50 -30 -30
-41 -31 -55 -5 -70 67 -38 318 -249 321 -270 4 -28 -25 -25 -65 7 -137 109
-240 194 -267 219 -29 27 -31 28 -62 13 -20 -10 -35 -28 -42 -50 -6 -19 -26
-47 -44 -62 -18 -16 -45 -46 -58 -68 -14 -22 -33 -46 -42 -54 -9 -7 -16 -20
-16 -27 0 -8 -8 -22 -18 -31 -46 -44 -81 -71 -101 -78 -11 -3 -21 -11 -21 -16
0 -5 -5 -9 -11 -9 -5 0 -37 -18 -69 -40 -32 -22 -63 -40 -67 -40 -5 0 -31 -17
-59 -38 -69 -52 -152 -68 -246 -48 -37 8 -76 12 -86 9 -11 -2 -31 6 -49 21
-17 14 -34 26 -37 26 -4 0 -24 11 -47 25 -22 14 -44 23 -49 20 -5 -3 -11 -1
-15 5 -8 13 -108 60 -128 60 -9 0 -18 4 -21 9 -3 4 -23 11 -45 15 -44 7 -174
78 -194 106 -7 10 -43 31 -80 48 -37 17 -67 36 -67 41 0 6 -6 10 -12 8 -8 -1
-12 6 -10 18 3 16 1 18 -9 8 -7 -7 -20 -13 -28 -13 -9 0 -25 -7 -36 -16 -19
-14 -19 -15 5 -21 42 -11 178 -83 225 -119 25 -19 48 -34 51 -34 3 0 24 -9 47
-19 40 -18 170 -67 212 -79 11 -3 26 -13 33 -21 9 -11 11 -12 6 -2 -13 26 55
-29 83 -66 16 -20 41 -45 58 -55 l30 -20 -90 5 c-58 3 -111 12 -150 27 -89 33
-200 59 -295 70 -47 6 -146 22 -220 36 -139 27 -221 59 -319 127 -57 39 -168
97 -187 97 -29 0 -13 -20 36 -45 75 -38 152 -90 176 -118 26 -30 149 -72 250
-87 39 -5 77 -12 85 -14 20 -8 60 -14 188 -31 76 -10 156 -29 235 -57 106 -36
135 -42 232 -46 69 -3 131 0 165 8 30 7 63 13 74 15 23 3 82 20 108 30 13 6
16 3 11 -9 -8 -21 19 -21 37 0 7 9 30 23 51 31 21 8 38 19 38 23 0 15 140 92
156 86 18 -7 1 -32 -99 -140 -52 -57 -64 -65 -132 -85 -40 -11 -77 -26 -80
-31 -3 -6 -48 -10 -100 -10 -63 0 -121 -7 -177 -21 -49 -13 -136 -24 -212 -28
-102 -6 -131 -11 -140 -24 -14 -18 -23 -14 -101 35 -60 38 -138 76 -192 94
-26 8 -61 21 -78 29 -130 57 -277 114 -310 119 -59 11 -116 39 -174 84 -128
101 -232 143 -179 72 16 -22 27 -28 41 -24 14 4 18 2 15 -7 -6 -17 20 -38 46
-39 10 0 35 -13 55 -29 52 -41 126 -76 199 -95 57 -14 117 -37 292 -111 30
-13 68 -27 84 -31 34 -8 109 -47 194 -98 69 -42 240 -111 342 -138 41 -11 79
-23 85 -28 6 -5 42 -14 80 -21 49 -9 78 -20 98 -37 15 -14 27 -29 27 -33 0 -4
13 -37 30 -72 32 -69 36 -87 20 -87 -5 0 -10 -11 -10 -25 0 -28 15 -33 28 -10
7 13 10 11 21 -11 6 -15 10 -28 8 -30 -1 -2 -120 -5 -262 -8 -143 -2 -267 -6
-276 -8 -10 -2 -32 17 -56 48 -28 34 -61 60 -104 83 -35 17 -86 45 -114 61
-48 28 -224 90 -273 96 -31 3 -83 38 -162 110 -36 32 -74 65 -84 74 -62 49
-123 112 -157 160 -21 30 -59 81 -84 114 -25 32 -62 92 -82 132 -19 41 -41 74
-47 74 -7 0 -21 -7 -31 -15 -11 -9 -58 -40 -104 -70 -84 -55 -121 -67 -121
-42 0 16 32 47 48 47 7 0 12 4 12 8 0 5 37 29 83 55 45 26 93 55 106 66 24 18
24 19 5 39 -10 11 -39 45 -64 76 -48 59 -60 62 -111 26 -50 -35 -148 -80 -163
-74 -38 15 -6 41 118 99 l97 45 -28 24 c-15 13 -46 33 -69 44 -22 11 -74 42
-115 69 -41 27 -119 73 -174 102 -100 53 -205 127 -298 210 -97 88 -159 193
-206 351 -12 41 -26 82 -30 90 -20 39 -82 334 -116 553 -5 33 -1 43 34 85 21
26 49 69 62 95 12 27 29 51 38 54 9 2 27 10 41 17 14 8 41 16 62 20 20 4 39
13 42 22 4 11 10 12 25 4 45 -23 54 -14 93 88 20 53 39 107 43 119 5 17 18 23
72 33 36 6 82 19 102 29 64 33 201 67 201 50 0 -5 11 -11 23 -14 13 -4 24 -12
25 -18 1 -7 5 -27 8 -45 3 -18 2 -38 -3 -45 -13 -16 1 -225 16 -240 6 -6 11
-19 11 -29 0 -33 43 -78 130 -136 103 -68 230 -170 230 -183 0 -6 12 -21 26
-34 30 -28 43 -79 44 -173 0 -67 5 -76 78 -130 16 -12 39 -42 50 -65 24 -51
82 -341 82 -410 0 -34 4 -49 16 -54 13 -5 15 -15 9 -59 -4 -35 -2 -61 6 -76 7
-13 12 -34 10 -48 -3 -33 21 -65 43 -57 13 5 15 11 7 26 -6 11 -13 41 -16 68
-25 233 -78 505 -115 587 -26 58 -44 80 -115 139 -29 24 -30 29 -36 129 -4 77
-11 113 -27 145 -23 45 -110 123 -222 200 -38 26 -70 54 -70 61 0 7 -5 10 -10
7 -6 -3 -14 5 -20 19 -5 14 -16 26 -24 26 -8 0 -17 14 -21 33 -4 17 -13 35
-19 39 -8 5 -7 11 2 20 16 16 15 28 -2 28 -31 0 -26 73 8 122 9 12 16 35 16
50 0 31 15 44 33 29 18 -15 130 -23 177 -12 33 7 44 6 64 -10 31 -24 41 -24
66 4 l21 22 31 -37 c16 -21 35 -38 41 -38 7 0 21 13 31 29 l19 28 24 -25 c20
-21 23 -22 29 -8 6 16 8 16 25 0 13 -12 22 -14 31 -6 9 7 36 7 83 1 98 -12
106 -14 139 -23 24 -8 32 -5 47 15 16 21 21 22 38 12 33 -20 49 -16 46 12 -3
20 6 30 46 55 56 34 71 37 62 14 -5 -14 -3 -15 18 -4 13 7 38 22 54 34 17 13
37 26 45 29 8 4 29 16 45 26 33 20 57 18 48 -5 -6 -16 13 -19 22 -4 5 8 11 7
20 0 11 -9 19 -7 36 9 12 11 26 18 31 15 4 -3 8 3 8 13 0 11 3 14 8 7 14 -21
35 -20 62 4 16 14 43 26 61 27 20 2 40 12 51 25 10 12 18 18 18 14 0 -5 21 -9
46 -9 44 0 48 2 67 39 12 22 23 34 25 28 2 -7 10 -12 17 -12 10 0 11 9 4 37
-6 29 -4 42 8 55 9 10 20 18 25 18 4 0 17 8 27 18 51 45 51 45 74 25 76 -68
164 -106 277 -118 30 -3 56 -8 59 -10 2 -3 10 0 17 6 8 6 21 8 30 5 12 -4 15
-2 10 9 -9 24 7 17 44 -19 29 -28 39 -32 59 -25 13 6 21 15 18 23 -8 19 205
21 281 2 38 -10 70 -12 97 -6 22 4 30 8 18 9 -31 1 -37 18 -10 25 15 4 35 -4
65 -25 23 -17 42 -26 42 -21 0 5 12 7 28 4 27 -4 27 -4 -8 23 l-35 26 40 -8
c22 -4 68 -8 103 -8 41 1 62 -3 62 -11 0 -6 7 -18 16 -25 15 -13 17 -11 12 17
-4 29 -1 33 31 43 34 10 38 9 63 -19 15 -16 30 -42 34 -57 4 -16 26 -70 51
-122 29 -62 40 -96 33 -101 -7 -4 1 -27 23 -67 48 -84 74 -206 50 -234 -8 -10
-9 -26 0 -62 5 -26 7 -50 3 -54 -4 -5 -31 -9 -59 -9 -71 -2 -71 -2 -56 -20 10
-13 24 -15 63 -10 l49 5 -7 -79 c-3 -44 -10 -90 -15 -103 -5 -13 -12 -41 -15
-62 -10 -63 -18 -85 -27 -79 -5 3 -6 -2 -3 -10 3 -9 1 -16 -5 -16 -6 0 -8 -6
-5 -14 3 -8 -4 -24 -15 -35 -12 -12 -21 -23 -21 -26 0 -3 0 -12 0 -20 0 -8 -8
-15 -19 -15 -13 0 -24 -16 -40 -60 -16 -43 -29 -63 -49 -72 -15 -7 -33 -28
-41 -45 -8 -18 -19 -33 -24 -33 -12 0 -127 -115 -127 -127 0 -6 -9 -13 -19
-16 -12 -3 -22 -17 -26 -38 -4 -19 -15 -43 -25 -54 -10 -11 -21 -42 -25 -70
-4 -27 -13 -57 -20 -65 -7 -8 -15 -24 -17 -34 -2 -16 4 -20 32 -23 19 -2 52
-6 73 -9 l38 -6 -31 30 c-20 21 -30 40 -30 61 0 35 29 101 44 101 6 0 22 25
34 54 17 39 35 62 63 80 21 15 39 30 39 34 0 4 30 39 66 77 97 103 156 198
188 301 15 49 34 112 43 139 20 66 39 265 36 390 -2 90 -18 179 -51 283 -10
31 -9 34 17 45 15 7 26 17 24 23 -2 5 11 17 29 25 22 9 33 21 33 35 0 11 8 29
18 39 17 16 17 19 3 27 -26 15 -19 27 24 38 51 14 73 35 60 59 -6 13 -17 17
-34 14 -13 -3 -33 0 -45 6 -22 12 -29 31 -11 31 21 0 150 83 150 97 0 7 -9 22
-21 34 -25 25 -21 53 9 57 27 4 45 35 37 62 -5 15 0 23 20 32 16 7 28 23 32
38 3 17 19 36 44 51 58 36 60 68 3 69 -35 0 -56 24 -61 71 -4 38 -1 50 21 76
26 30 36 83 16 83 -5 0 -10 11 -10 25 0 16 17 42 50 75 28 28 50 59 50 69 0
17 -7 18 -85 13 -89 -5 -101 1 -65 33 32 29 25 45 -19 45 -47 0 -58 13 -41 45
20 36 7 55 -38 55 -58 0 -102 18 -102 42 0 14 -6 18 -22 16 -14 -2 -22 2 -20
10 5 28 21 303 21 381 0 142 -19 152 -151 87 -51 -26 -115 -63 -142 -84 -27
-20 -55 -41 -62 -47 -10 -7 -22 -1 -43 23 -21 23 -39 32 -60 32 -23 0 -31 5
-31 18 0 20 -29 52 -47 52 -6 0 -13 9 -16 20 -3 11 -17 24 -31 30 -14 5 -26
14 -26 20 0 6 -7 18 -15 26 -8 9 -15 24 -15 34 0 24 -42 51 -61 39 -24 -15
-39 -10 -39 15 0 22 -18 37 -45 40 -14 1 -81 67 -87 86 -3 9 -17 15 -34 15
-22 0 -34 8 -53 38 -13 20 -29 37 -36 37 -6 0 -24 18 -41 40 -17 24 -40 43
-56 47 -16 3 -28 9 -28 14 0 4 -27 7 -60 7 -33 0 -60 -5 -60 -9 0 -14 -33 -10
-54 6 -28 21 -36 19 -36 -10 0 -31 -13 -32 -53 -1 -48 36 -89 42 -113 15z m82
-191 c4 -7 3 -8 -4 -4 -7 4 -12 2 -12 -3 0 -16 16 -13 30 4 7 8 18 15 24 14 7
0 6 -2 -1 -6 -23 -9 -14 -24 11 -19 17 3 23 1 20 -8 -3 -8 2 -16 10 -19 9 -4
19 -24 22 -48 4 -22 17 -52 30 -66 22 -24 23 -24 33 -4 6 11 11 27 11 37 0 11
6 15 18 11 43 -12 47 -12 44 5 -3 21 37 35 49 17 5 -8 12 -31 15 -51 4 -21 10
-35 15 -32 11 6 56 -23 63 -42 3 -9 1 -12 -4 -9 -12 8 -13 -8 -1 -20 5 -6 2
-32 -9 -62 -9 -29 -14 -53 -9 -53 4 0 9 6 11 12 3 9 11 8 31 -5 14 -9 33 -14
42 -11 11 5 17 -2 21 -25 4 -17 13 -31 21 -31 8 0 12 -4 9 -9 -4 -5 3 -7 14
-4 14 4 20 0 20 -11 0 -9 6 -15 13 -14 6 2 11 -6 10 -16 -1 -11 5 -28 12 -39
12 -17 16 -14 45 42 31 58 58 83 45 42 -4 -15 1 -20 26 -25 17 -3 35 -3 40 0
12 7 11 -3 -2 -29 -9 -18 -9 -20 2 -9 26 25 27 11 4 -58 -13 -38 -21 -71 -17
-73 22 -12 62 -16 68 -6 6 11 24 -6 24 -24 0 -15 -98 -112 -169 -167 -57 -45
-71 -61 -72 -85 -4 -55 -5 -60 -17 -82 -14 -26 -52 -178 -52 -210 0 -13 5 -23
11 -23 5 0 7 5 4 10 -3 6 1 10 9 10 9 0 16 -5 16 -11 0 -5 4 -8 9 -5 10 6 131
-52 193 -92 31 -20 89 -86 60 -68 -6 3 -13 2 -17 -4 -3 -5 3 -10 14 -10 12 0
21 -4 21 -9 0 -5 -9 -7 -20 -4 -22 6 -26 -7 -8 -25 9 -9 7 -12 -13 -12 l-24 0
25 -21 c14 -11 19 -18 13 -14 -7 3 -13 1 -13 -5 0 -7 7 -9 16 -6 16 6 85 -28
134 -67 24 -19 24 -20 3 -14 -24 5 -33 -16 -13 -28 16 -10 12 -25 -6 -25 -10
0 -14 -6 -10 -15 10 -27 -24 -34 -89 -16 -40 12 -62 14 -62 7 1 -60 2 -59 -73
-54 -66 5 -106 21 -95 38 3 4 -25 25 -60 45 -36 21 -65 42 -65 47 0 11 2 10
43 -7 46 -19 61 -19 53 1 -4 11 -1 14 13 9 14 -4 20 1 24 22 3 15 4 29 3 30
-1 1 -29 5 -62 9 -44 5 -72 15 -110 41 -39 26 -55 32 -73 25 l-23 -8 27 -12
c16 -7 25 -18 22 -26 -3 -7 0 -19 6 -25 9 -9 0 -11 -40 -6 -29 3 -53 2 -53 -3
0 -5 -12 -14 -27 -21 -20 -9 -23 -15 -15 -23 7 -7 12 -16 12 -20 0 -12 -48
-10 -55 2 -4 6 -15 8 -25 5 -10 -3 -21 -1 -25 4 -4 7 1 8 12 5 16 -6 15 -5 -2
9 -10 8 -25 13 -32 10 -7 -3 -13 2 -13 11 0 9 -4 16 -10 16 -17 0 -11 -19 9
-32 24 -14 6 -37 -24 -30 -20 4 -20 4 0 -13 17 -14 17 -16 2 -11 -19 6 -69
-13 -62 -24 2 -4 -8 -5 -22 -2 l-26 5 22 -36 c17 -27 18 -35 7 -33 -9 1 -19 5
-22 9 -15 14 -24 6 -15 -12 10 -17 8 -18 -26 -11 -20 5 -46 19 -57 32 -61 68
-76 91 -71 112 2 11 2 15 -1 7 -5 -11 -11 -8 -26 10 -14 17 -21 20 -25 11 -3
-9 -10 -7 -24 9 -15 18 -19 19 -19 6 0 -10 -4 -17 -10 -17 -5 0 -10 7 -10 15
0 8 -5 15 -11 15 -8 0 -9 -18 -5 -62 7 -55 6 -60 -8 -49 -14 11 -16 11 -17 -5
-1 -11 -1 -27 0 -36 3 -30 -18 -20 -33 15 l-14 32 -2 -30 c-1 -16 -4 -24 -7
-17 -2 6 -11 12 -19 12 -18 0 -46 63 -38 83 3 8 1 18 -4 21 -5 3 -12 -6 -15
-19 -2 -14 0 -28 4 -31 16 -10 9 -23 -8 -18 -17 5 -17 5 0 -6 9 -6 17 -20 17
-31 0 -11 12 -31 26 -46 26 -26 26 -45 -1 -23 -12 10 -15 10 -15 -3 0 -9 5
-19 10 -22 13 -8 13 -45 1 -45 -6 0 -13 5 -16 10 -3 6 -11 10 -17 10 -6 0 -4
-8 5 -18 22 -24 21 -31 -3 -25 -11 3 -20 9 -20 14 0 5 -6 6 -13 3 -7 -2 -28 7
-47 21 -22 16 -47 25 -72 25 -26 0 -38 4 -38 14 0 23 -17 28 -33 11 -9 -8 -20
-15 -26 -15 -6 0 -11 -7 -11 -15 0 -22 15 -18 33 8 8 12 19 18 23 14 5 -4 -5
-18 -21 -31 -30 -24 -44 -62 -19 -52 21 8 17 -34 -5 -61 -11 -13 -24 -23 -30
-23 -6 0 -8 -6 -5 -14 5 -12 -85 -86 -104 -86 -4 0 1 5 11 11 9 6 15 14 12 19
-3 5 -1 11 5 15 5 3 10 11 10 17 0 6 -8 4 -19 -6 -22 -20 -53 -12 -44 12 5 12
2 14 -11 9 -9 -4 -15 -3 -11 2 3 5 1 12 -4 16 -6 3 -29 -11 -53 -32 -66 -57
-85 -71 -72 -53 20 27 24 48 8 46 -8 -1 -20 -8 -26 -14 -18 -18 -28 -15 -28 9
0 15 -5 19 -15 15 -8 -3 -15 -1 -15 4 0 6 -5 10 -11 10 -5 0 -7 -4 -4 -10 3
-5 -1 -10 -10 -10 -12 0 -15 6 -10 20 8 24 -13 28 -22 4 -3 -9 -13 -14 -24
-11 -11 3 -19 1 -19 -4 0 -5 -9 -9 -19 -9 -11 0 -23 -4 -26 -10 -3 -5 -19 -10
-36 -10 -18 0 -29 -5 -29 -14 0 -7 -12 -21 -26 -31 -25 -16 -28 -16 -36 -1 -7
13 -13 14 -23 6 -20 -16 -28 5 -9 24 18 19 34 21 34 4 0 -6 2 -9 5 -6 3 2 -2
19 -11 36 -16 33 -26 42 -22 20 2 -7 -7 -14 -19 -16 -22 -3 -33 -32 -13 -32 6
0 10 -4 10 -9 0 -10 -34 -8 -63 4 -16 7 -16 8 -1 20 14 10 14 14 4 20 -9 5
-15 4 -18 -3 -2 -7 -10 -19 -18 -26 -11 -11 -11 -15 -1 -19 8 -3 6 -10 -8 -21
-20 -17 -20 -17 4 -10 44 12 12 -14 -64 -51 -72 -36 -74 -36 -93 -18 -11 10
-27 32 -36 50 -20 40 -33 48 -51 33 -10 -9 -15 -9 -15 -1 0 6 11 13 25 17 14
3 25 10 25 14 0 5 10 12 23 16 57 17 79 73 30 75 -16 1 -31 1 -35 0 -4 0 -5 7
-1 17 5 13 3 14 -7 5 -7 -6 -19 -9 -28 -6 -10 4 -13 2 -8 -5 4 -7 4 -12 -1
-13 -44 -5 -63 -5 -63 3 0 4 -9 -1 -20 -12 -11 -11 -20 -25 -20 -30 0 -6 -15
-3 -32 7 -18 9 -41 16 -50 14 -32 -4 -19 17 14 25 33 7 87 56 69 62 -6 2 -7
11 -4 20 6 16 5 15 -14 0 -21 -20 -43 -24 -43 -8 0 5 7 13 17 18 20 12 10 47
-11 39 -8 -3 -16 -1 -18 5 -3 8 -10 8 -25 -1 -26 -13 -56 -16 -35 -2 11 6 7
13 -16 30 -32 23 -47 27 -37 11 10 -15 -29 -12 -51 5 -19 14 -19 14 2 15 11 0
29 7 40 15 18 15 18 16 -11 40 -16 14 -42 28 -57 32 -16 3 -28 8 -28 10 0 8
43 67 63 87 11 11 16 21 10 23 -10 4 13 59 36 87 7 9 5 16 -10 27 -21 14 -50
57 -31 45 5 -3 13 4 16 17 12 44 30 56 97 63 65 6 93 18 86 38 -2 6 -14 13
-28 16 -21 5 -24 11 -21 41 2 19 8 40 14 47 6 6 7 12 2 13 -5 1 2 4 16 8 16 5
24 13 22 24 -4 21 17 22 32 3 14 -18 86 -28 87 -12 1 6 1 14 0 19 -1 9 23 9
32 0 4 -3 3 -11 -2 -17 -6 -8 1 -12 24 -13 26 -1 34 3 38 19 3 11 10 17 16 14
5 -4 12 -3 15 2 6 11 -26 39 -45 39 -8 0 -27 4 -43 8 -26 7 -28 6 -21 -14 8
-25 -6 -27 -39 -6 -25 17 -46 17 -58 0 -5 -6 -12 -5 -20 3 -9 9 -9 12 0 12 6
0 11 8 10 18 -3 36 2 52 17 52 9 0 12 -6 9 -15 -7 -18 13 -20 53 -4 l28 11
-27 14 c-16 8 -28 17 -28 20 0 12 28 33 35 26 5 -4 5 -1 0 7 -4 8 -2 16 5 21
9 6 5 13 -14 25 -33 22 -33 35 -1 35 14 0 28 7 31 15 5 12 10 13 20 4 13 -10
37 -10 179 6 22 3 34 2 28 -1 -23 -10 -15 -41 9 -39 12 1 44 -2 71 -7 33 -6
53 -6 60 1 14 14 30 14 22 1 -4 -6 7 -9 27 -7 21 2 34 8 36 19 2 13 -2 15 -20
11 -13 -3 -20 -2 -15 2 4 5 -7 15 -24 22 -42 18 -54 16 -38 -4 12 -15 12 -16
-3 -10 -10 3 -18 2 -18 -3 0 -6 -5 -10 -10 -10 -6 0 -8 11 -6 25 3 14 0 25 -5
25 -5 0 -9 5 -9 10 0 6 9 10 21 10 11 0 32 9 46 20 14 11 20 20 12 20 -23 0 4
16 47 28 53 15 54 15 54 -4 0 -8 5 -12 10 -9 6 4 26 -9 45 -28 34 -34 35 -35
57 -16 14 13 24 16 28 9 4 -7 15 -4 31 9 l24 19 -28 13 c-19 9 -26 18 -22 30
3 9 1 20 -5 24 -20 12 -10 23 19 20 32 -4 73 -34 65 -47 -3 -4 4 -8 15 -8 12
0 21 -4 21 -8 0 -4 13 -15 29 -25 35 -20 63 -23 37 -4 -18 13 -18 14 -2 20 10
4 21 5 26 2 4 -3 11 2 14 11 3 8 10 13 15 10 5 -3 12 1 15 10 10 25 7 32 -14
39 -27 9 -25 19 5 33 14 6 25 18 25 26 0 8 5 16 11 18 8 3 7 14 -5 35 -10 20
-12 34 -6 38 6 3 10 0 10 -7 1 -9 4 -9 13 3 14 17 52 35 42 19 -9 -14 34 -18
72 -6 19 6 22 4 20 -21 -1 -15 3 -28 10 -28 6 0 15 -3 18 -7 4 -4 16 -3 27 3
15 8 17 13 7 25 -9 11 -8 14 5 14 9 0 16 -4 16 -10 0 -5 7 -7 15 -4 8 4 12 10
9 15 -3 5 1 9 10 9 8 0 17 -6 19 -12 3 -7 6 -1 6 13 1 35 23 77 38 72 6 -2 14
1 18 6 3 6 0 11 -7 11 -9 0 -9 3 2 10 24 16 29 12 41 -30 14 -46 20 -48 49
-17 15 15 21 17 20 7 -5 -38 0 -41 30 -20 16 12 35 18 42 14 8 -5 9 0 5 17 -4
13 -7 32 -7 42 0 9 -7 17 -16 17 -12 0 -11 5 7 20 21 18 22 19 4 14 -18 -6
-17 -4 3 10 22 17 58 19 53 3 -2 -9 24 -37 36 -37 5 0 9 15 10 33 0 19 -1 23
-4 10 -2 -13 -9 -23 -15 -23 -17 0 1 52 26 74 88 79 109 94 100 72 -5 -12 0
-16 19 -16 14 0 28 6 30 13 3 6 6 2 6 -10 1 -16 5 -21 17 -16 12 4 15 18 13
59 -2 30 0 57 4 61 4 3 7 1 7 -5 0 -7 5 -12 11 -12 6 0 8 7 5 16 -10 26 7 44
20 22z m-1911 -183 c39 -13 80 -25 91 -25 19 0 87 -27 161 -62 12 -6 42 -8 68
-5 27 4 45 3 45 -3 0 -6 7 -10 16 -10 9 0 12 5 8 12 -4 7 -3 8 5 4 6 -4 39 2
74 13 34 11 88 25 120 32 31 7 57 15 57 18 0 9 190 6 229 -4 27 -6 30 -10 17
-17 -11 -6 -22 -5 -32 3 -12 10 -19 9 -36 -8 -16 -17 -18 -24 -9 -42 11 -20 9
-21 -30 -21 -32 0 -42 -4 -46 -19 -3 -12 -17 -23 -34 -26 -16 -4 -37 -17 -47
-29 -13 -17 -33 -25 -76 -30 -50 -7 -57 -10 -53 -27 4 -16 0 -19 -30 -19 -41
0 -73 -15 -73 -34 0 -10 -17 -16 -52 -19 -238 -21 -321 -40 -326 -73 -2 -15
-9 -20 -20 -17 -9 2 -27 -5 -39 -17 -34 -31 -69 -41 -149 -42 -96 -1 -101 -5
-79 -62 14 -37 15 -49 5 -61 -10 -12 -10 -21 0 -45 15 -35 16 -34 -29 -46 -49
-13 -59 -35 -38 -80 11 -22 14 -40 9 -48 -5 -6 -12 -23 -16 -37 -3 -17 -15
-29 -30 -33 -35 -9 -40 -44 -11 -78 26 -31 24 -54 -5 -63 -11 -3 -22 -15 -25
-25 -3 -11 -19 -29 -36 -41 -33 -23 -63 -74 -56 -93 3 -7 -3 -26 -14 -42 -10
-16 -19 -38 -19 -49 0 -11 -9 -31 -20 -45 -24 -31 -26 -66 -4 -78 14 -8 15
-14 5 -42 -18 -52 -14 -89 13 -114 24 -22 25 -23 12 -86 -12 -56 -11 -68 1
-87 9 -13 22 -23 29 -23 8 0 14 -8 15 -17 0 -10 2 -35 5 -56 3 -36 2 -39 -39
-56 -49 -21 -212 -60 -243 -58 -13 1 -20 6 -17 14 3 7 0 13 -6 13 -6 0 -31 20
-55 45 -25 25 -50 45 -56 45 -6 0 -21 10 -33 21 -12 12 -17 19 -12 16 6 -3 17
-2 25 3 11 7 12 14 3 32 -24 49 -64 160 -60 165 3 2 -3 13 -14 24 -10 10 -19
28 -19 40 0 11 -5 30 -11 41 -9 17 -9 20 4 15 10 -3 17 1 20 14 5 18 26 24 69
20 9 -1 22 8 28 19 20 38 43 60 128 127 61 48 82 71 82 88 0 13 -4 26 -9 29
-4 3 -11 18 -14 33 -3 16 -22 55 -42 88 l-37 60 17 53 c9 29 30 83 46 119 16
36 29 74 29 85 0 10 4 17 9 14 7 -5 63 86 61 99 0 3 12 19 27 35 15 17 28 33
28 38 0 4 9 20 19 35 23 34 67 208 65 257 -1 19 8 54 20 77 11 23 21 50 21 61
0 20 54 51 104 59 15 2 74 20 130 38 55 19 103 34 106 34 3 1 37 -10 75 -24z
m3241 -222 c-13 -27 -13 -30 9 -48 13 -11 24 -27 24 -35 1 -12 -1 -12 -8 -2
-7 11 -9 10 -14 -3 -4 -9 -1 -18 8 -21 10 -4 11 -12 6 -27 -5 -12 -6 -28 -4
-34 3 -7 -1 -13 -7 -13 -8 0 -11 -10 -8 -25 3 -13 0 -26 -5 -28 -6 -2 -11 -34
-12 -73 -1 -38 -14 -114 -29 -169 -71 -261 -67 -239 -70 -455 -3 -175 -11
-266 -27 -285 -4 -6 -12 -46 -18 -90 -11 -88 -34 -165 -44 -148 -4 6 -8 31
-10 57 -3 34 -1 46 9 46 10 0 14 14 14 50 0 28 5 50 10 50 6 0 10 16 10 35 0
29 -5 37 -25 45 -14 5 -30 21 -35 35 -5 14 -15 24 -21 23 -6 -2 -12 14 -14 35
-2 20 -2 37 1 37 9 0 34 -29 33 -37 -4 -18 14 -43 32 -43 22 0 24 11 7 28 -9
9 -7 12 9 12 27 0 41 20 16 21 -10 1 -24 1 -30 0 -7 -1 -13 3 -13 9 0 5 7 10
16 10 18 0 14 22 -6 28 -7 3 -10 0 -6 -7 4 -6 3 -11 -3 -11 -5 0 -12 8 -14 18
-3 10 -5 6 -6 -11 -1 -18 -5 -26 -12 -21 -6 4 -8 20 -4 40 6 35 -2 43 -23 22
-13 -13 -38 3 -47 32 -6 18 -7 18 -26 2 -24 -20 -25 -31 -1 -26 26 6 50 -12
35 -27 -9 -9 -18 -8 -37 5 -21 13 -26 25 -26 57 0 36 -3 41 -31 51 -36 12 -56
53 -37 75 10 12 9 18 -7 29 -10 8 -13 14 -6 14 8 0 7 5 -4 17 -13 12 -19 13
-25 4 -5 -10 -9 -9 -14 4 -3 9 -11 13 -16 10 -6 -4 -18 -1 -26 6 -8 7 -32 15
-52 19 -23 4 -36 11 -34 19 2 10 -4 12 -20 6 -116 -35 -115 16 5 194 68 102
169 210 312 335 80 70 262 209 300 229 30 15 30 15 33 -13 2 -16 -3 -42 -12
-57z m-606 -22 c0 -5 -9 -11 -19 -14 -14 -3 -18 -1 -14 9 6 15 33 19 33 5z
m-2255 -151 c-16 -4 -25 -9 -20 -10 27 -6 -48 -18 -110 -18 l-70 0 55 18 c30
11 82 19 115 18 48 0 54 -2 30 -8z m-205 -40 c0 -5 -7 -10 -15 -10 -8 0 -15 5
-15 10 0 6 7 10 15 10 8 0 15 -4 15 -10z m-194 -133 c8 3 14 -1 14 -11 0 -9
-5 -16 -12 -16 -6 0 -20 -8 -30 -17 -17 -15 -20 -15 -28 -3 -7 10 -5 19 5 26
8 6 15 17 15 25 0 10 3 10 11 2 6 -6 18 -9 25 -6z m84 -10 c0 -20 -9 -25 -31
-20 -33 9 -21 25 24 32 4 0 7 -5 7 -12z m-152 -69 c-2 -8 7 -12 25 -10 20 3
27 -1 27 -13 0 -12 -6 -15 -22 -9 -13 3 -20 3 -16 -1 9 -9 -9 -35 -24 -35 -5
0 -5 8 1 18 6 11 6 24 0 33 -12 19 -11 29 1 29 6 0 9 -6 8 -12z m-13 -28 c3
-5 1 -10 -4 -10 -6 0 -11 5 -11 10 0 6 2 10 4 10 3 0 8 -4 11 -10z m-19 -135
c-3 -8 2 -21 10 -30 14 -13 14 -16 0 -21 -12 -4 -13 -10 -4 -23 8 -13 8 -23
-1 -37 -11 -18 -12 -18 -6 2 4 14 0 24 -10 28 -8 3 -15 14 -15 25 0 24 17 71
26 71 3 0 4 -7 0 -15z m204 -25 c0 -5 -4 -10 -10 -10 -5 0 -10 5 -10 10 0 6 5
10 10 10 6 0 10 -4 10 -10z m3368 -167 c16 -16 16 -16 0 -10 -10 3 -20 2 -23
-3 -4 -6 1 -10 10 -10 8 0 18 -7 21 -15 4 -8 11 -15 16 -15 6 0 8 7 4 15 -4
10 1 15 16 15 19 0 20 -4 15 -42 -4 -28 -14 -50 -29 -62 -13 -11 -16 -17 -7
-14 20 8 22 -50 3 -103 -7 -22 -9 -39 -5 -39 5 0 11 -11 13 -25 4 -19 1 -25
-11 -23 -11 2 -15 -3 -13 -19 2 -13 -2 -28 -8 -35 -5 -7 -20 -25 -31 -41 -11
-15 -25 -24 -31 -21 -5 4 -21 1 -34 -7 -29 -15 -46 -3 -21 16 12 9 15 15 7 20
-6 4 -17 -1 -24 -11 -11 -15 -13 -8 -10 47 2 35 6 111 8 168 3 82 7 107 20
116 9 7 16 17 16 24 0 11 68 91 77 91 2 0 12 -8 21 -17z m-3688 -53 c0 -5 -4
-10 -10 -10 -5 0 -10 5 -10 10 0 6 5 10 10 10 6 0 10 -4 10 -10z m15 -43 c6
-4 2 -7 -9 -5 -10 2 -21 -3 -23 -9 -3 -7 0 -13 6 -13 6 0 11 -5 11 -11 0 -5
-5 -7 -11 -3 -6 3 -15 0 -20 -7 -7 -11 -10 -12 -21 -1 -11 11 -9 16 6 28 11 8
16 14 11 14 -5 0 0 6 11 14 10 8 21 11 24 8 3 -4 10 -10 15 -15z m2965 -128
c0 -6 -4 -7 -10 -4 -5 3 -10 11 -10 16 0 6 5 7 10 4 6 -3 10 -11 10 -16z
m-570 -234 c0 -6 14 -16 32 -23 53 -20 22 -35 -41 -20 -47 11 -51 13 -35 25
13 10 14 13 3 13 -11 1 -11 3 2 13 9 7 14 19 11 27 -2 9 2 7 12 -5 8 -11 16
-25 16 -30z m-2275 -135 c-10 -11 -23 -20 -28 -20 -6 0 -2 9 8 20 10 11 23 20
28 20 6 0 2 -9 -8 -20z m73 -161 c-6 -4 -17 -2 -23 4 -10 10 -9 13 4 18 19 7
35 -12 19 -22z m-868 1 c0 -5 -4 -10 -10 -10 -5 0 -10 5 -10 10 0 6 5 10 10
10 6 0 10 -4 10 -10z m1650 -25 c0 -8 -4 -15 -10 -15 -5 0 -7 7 -4 15 4 8 8
15 10 15 2 0 4 -7 4 -15z m-80 -300 c0 -8 -2 -15 -4 -15 -2 0 -6 7 -10 15 -3
8 -1 15 4 15 6 0 10 -7 10 -15z m-716 -2141 c3 -8 2 -12 -4 -9 -6 3 -10 10
-10 16 0 14 7 11 14 -7z m2248 -186 c2 -57 -3 -90 -25 -162 -19 -59 -30 -124
-34 -186 -5 -89 -8 -99 -42 -147 -69 -99 -151 -201 -187 -235 -21 -18 -51 -45
-67 -60 -16 -16 -34 -28 -38 -28 -11 0 -35 39 -44 70 -3 14 -10 34 -15 45 -5
11 -21 49 -35 84 -48 116 -53 119 -240 160 -177 39 -297 83 -289 105 4 11 30
15 115 15 60 0 114 3 119 6 5 3 40 6 77 6 73 1 225 21 293 39 116 31 213 98
268 185 14 22 38 55 55 74 16 19 36 49 43 68 24 57 42 42 46 -39z m-1442 -623
c23 -8 53 -15 67 -15 13 0 48 -15 77 -34 30 -19 87 -50 128 -69 67 -31 118
-74 118 -99 0 -6 -29 -9 -72 -6 -57 3 -86 10 -135 35 -119 62 -283 203 -234
203 5 0 28 -7 51 -15z m1206 -184 c-12 -22 -24 -31 -41 -31 -38 0 -38 16 3 48
43 36 61 28 38 -17z m-306 -157 c0 -8 -4 -12 -10 -9 -5 3 -10 10 -10 16 0 5 5
9 10 9 6 0 10 -7 10 -16z m-70 -4 c0 -5 -6 -10 -14 -10 -8 0 -18 5 -21 10 -3
6 3 10 14 10 12 0 21 -4 21 -10z m35 0 c3 -5 1 -10 -4 -10 -6 0 -11 5 -11 10
0 6 2 10 4 10 3 0 8 -4 11 -10z"/>
<path d="M3543 5960 c-1 -19 2 -27 10 -24 15 6 19 54 3 54 -6 0 -12 -13 -13
-30z"/>
<path d="M3500 5970 c-23 -7 -23 -8 -3 -9 12 -1 25 4 28 9 3 6 5 10 3 9 -2 -1
-14 -5 -28 -9z"/>
<path d="M3400 5950 c0 -6 7 -10 15 -10 8 0 15 2 15 4 0 2 -7 6 -15 10 -8 3
-15 1 -15 -4z"/>
<path d="M3440 5890 c0 -5 5 -10 10 -10 6 0 10 5 10 10 0 6 -4 10 -10 10 -5 0
-10 -4 -10 -10z"/>
<path d="M3405 5721 c-3 -5 -1 -12 4 -15 5 -3 11 1 15 9 6 16 -9 21 -19 6z"/>
<path d="M4245 5660 c-3 -5 1 -10 9 -10 9 0 16 5 16 10 0 6 -4 10 -9 10 -6 0
-13 -4 -16 -10z"/>
<path d="M4285 5630 c3 -5 8 -10 11 -10 2 0 4 5 4 10 0 6 -5 10 -11 10 -5 0
-7 -4 -4 -10z"/>
<path d="M2680 5480 c0 -5 5 -10 10 -10 6 0 10 5 10 10 0 6 -4 10 -10 10 -5 0
-10 -4 -10 -10z"/>
<path d="M4116 5422 c-5 -9 18 -42 30 -42 8 0 4 16 -9 35 -9 11 -16 14 -21 7z"/>
<path d="M4075 5400 c-3 -6 1 -7 9 -4 18 7 21 14 7 14 -6 0 -13 -4 -16 -10z"/>
<path d="M1530 4839 c0 -5 5 -7 10 -4 6 3 10 8 10 11 0 2 -4 4 -10 4 -5 0 -10
-5 -10 -11z"/>
<path d="M4327 4749 c7 -7 15 -10 18 -7 3 3 -2 9 -12 12 -14 6 -15 5 -6 -5z"/>
<path d="M3413 4743 c-15 -5 -18 -53 -4 -53 5 0 11 14 13 30 3 17 4 30 4 29
-1 0 -7 -3 -13 -6z"/>
<path d="M4237 4703 c-15 -15 -6 -33 17 -33 33 0 42 16 17 29 -23 13 -26 13
-34 4z"/>
<path d="M4175 4681 c-3 -5 -1 -12 5 -16 12 -7 30 2 30 16 0 12 -27 12 -35 0z"/>
<path d="M4300 4653 c0 -8 5 -13 12 -11 18 6 21 25 3 25 -8 0 -15 -7 -15 -14z"/>
<path d="M4405 4640 c-3 -5 -1 -10 4 -10 6 0 11 5 11 10 0 6 -2 10 -4 10 -3 0
-8 -4 -11 -10z"/>
<path d="M4225 4630 c-3 -5 1 -10 10 -10 9 0 13 5 10 10 -3 6 -8 10 -10 10 -2
0 -7 -4 -10 -10z"/>
<path d="M3194 4589 c-4 -7 -3 -14 4 -17 7 -2 10 -8 6 -13 -3 -5 0 -9 5 -9 13
0 14 20 2 39 -7 11 -10 11 -17 0z"/>
<path d="M3238 4575 c5 -29 17 -32 26 -8 4 9 1 20 -6 25 -21 13 -25 9 -20 -17z"/>
<path d="M3036 4534 c-10 -25 1 -29 14 -5 6 12 7 21 1 21 -5 0 -12 -7 -15 -16z"/>
<path d="M2535 4490 c-3 -5 -1 -10 4 -10 6 0 11 5 11 10 0 6 -2 10 -4 10 -3 0
-8 -4 -11 -10z"/>
<path d="M3000 4459 c0 -5 5 -7 10 -4 6 3 10 8 10 11 0 2 -4 4 -10 4 -5 0 -10
-5 -10 -11z"/>
<path d="M2855 4440 c-3 -6 1 -7 9 -4 18 7 21 14 7 14 -6 0 -13 -4 -16 -10z"/>
<path d="M2801 4426 c-9 -10 -9 -16 -1 -21 13 -8 23 0 26 20 3 19 -10 19 -25
1z"/>
<path d="M2838 4373 c7 -3 16 -2 19 1 4 3 -2 6 -13 5 -11 0 -14 -3 -6 -6z"/>
<path d="M1900 4310 c0 -6 4 -9 9 -6 5 4 12 1 14 -4 3 -6 4 -5 3 2 -3 15 -26
23 -26 8z"/>
<path d="M2838 4293 c7 -3 16 -2 19 1 4 3 -2 6 -13 5 -11 0 -14 -3 -6 -6z"/>
<path d="M4810 5650 c0 -5 5 -10 10 -10 6 0 10 5 10 10 0 6 -4 10 -10 10 -5 0
-10 -4 -10 -10z"/>
<path d="M4753 5610 c1 -8 -9 -26 -22 -39 -16 -16 -20 -26 -13 -29 7 -2 12
-11 11 -20 0 -11 -2 -12 -6 -4 -2 6 -11 12 -19 12 -18 0 -117 -102 -105 -109
4 -3 7 -18 5 -34 -3 -32 13 -27 26 9 6 14 18 25 30 25 32 2 38 4 46 12 4 4 1
7 -7 8 -8 1 -3 4 11 8 14 4 25 14 25 23 0 8 7 23 15 33 8 10 14 20 13 21 -5
10 11 43 23 48 8 3 14 10 14 16 0 6 -4 8 -10 5 -5 -3 -10 -1 -10 5 0 6 -4 9
-9 6 -5 -4 -12 0 -15 6 -3 8 -5 8 -3 -2z"/>
<path d="M4575 5240 c-3 -5 -1 -10 4 -10 6 0 11 5 11 10 0 6 -2 10 -4 10 -3 0
-8 -4 -11 -10z"/>
<path d="M4729 5178 c-17 -79 -17 -120 -1 -125 6 -3 12 0 12 7 0 6 -4 8 -10 5
-5 -3 -10 -2 -10 3 0 6 6 12 14 15 9 4 13 27 13 81 0 42 -1 76 -2 76 -1 0 -8
-28 -16 -62z"/>
<path d="M4550 5205 c-6 -8 -10 -19 -8 -26 2 -6 9 0 16 15 13 29 10 33 -8 11z"/>
<path d="M4399 5159 c-14 -14 -28 -19 -42 -15 -20 5 -21 4 -4 -8 9 -7 17 -18
17 -25 0 -6 4 -11 8 -11 17 0 52 -42 46 -53 -4 -7 -4 -9 1 -5 4 4 14 1 22 -7
8 -8 24 -15 36 -15 22 1 22 1 3 15 -11 8 -24 15 -29 15 -4 0 -5 9 -2 20 4 12
2 20 -5 20 -6 0 -8 -5 -4 -12 4 -7 3 -8 -4 -4 -7 4 -12 18 -12 31 0 18 -4 23
-15 19 -25 -10 -17 13 13 35 21 16 23 20 10 21 -10 0 -27 -9 -39 -21z"/>
<path d="M4525 5161 c4 -8 2 -17 -6 -22 -9 -6 -10 -9 -2 -9 19 0 27 21 13 33
-10 9 -11 9 -5 -2z"/>
<path d="M4510 4961 c0 -5 6 -11 13 -14 10 -4 10 -7 0 -18 -20 -20 -16 -37 13
-55 20 -14 27 -15 33 -5 6 10 12 9 25 -4 14 -15 16 -15 16 -1 0 9 -7 16 -16
16 -12 0 -15 7 -11 26 4 21 1 25 -14 21 -11 -3 -19 -1 -19 5 0 10 -25 38 -34
38 -3 0 -6 -4 -6 -9z"/>
<path d="M5150 4780 c0 -5 5 -10 10 -10 6 0 10 5 10 10 0 6 -4 10 -10 10 -5 0
-10 -4 -10 -10z"/>
<path d="M3740 4166 c0 -9 5 -16 10 -16 6 0 10 4 10 9 0 6 -4 13 -10 16 -5 3
-10 -1 -10 -9z"/>
<path d="M3830 4170 c-12 -8 -10 -10 8 -10 13 0 20 4 17 10 -7 12 -6 12 -25 0z"/>
<path d="M4155 4140 c3 -5 8 -10 11 -10 2 0 4 5 4 10 0 6 -5 10 -11 10 -5 0
-7 -4 -4 -10z"/>
<path d="M4230 4140 c0 -5 5 -10 10 -10 6 0 10 5 10 10 0 6 -4 10 -10 10 -5 0
-10 -4 -10 -10z"/>
<path d="M4045 3852 c15 -16 62 -25 69 -13 4 6 -1 11 -11 11 -10 0 -29 3 -43
6 -17 5 -22 4 -15 -4z"/>
<path d="M3973 3827 c-4 -8 -26 -17 -48 -21 -64 -11 -65 -12 -83 -27 -23 -19
-57 -35 -83 -38 -6 0 -9 -7 -6 -14 3 -7 -8 -28 -24 -47 -25 -32 -28 -33 -22
-10 4 14 13 36 22 50 l15 25 -22 -19 c-12 -11 -22 -25 -22 -33 0 -7 -4 -13 -9
-13 -10 0 -41 -78 -41 -105 0 -11 -7 -33 -16 -50 -9 -16 -16 -46 -16 -65 0
-53 9 -284 12 -290 2 -5 15 39 29 100 5 19 9 27 10 18 2 -28 19 -21 23 10 2
15 8 26 16 24 6 -1 12 7 12 18 0 17 3 19 19 11 66 -36 158 -31 307 14 76 23
94 33 132 73 79 83 113 130 132 179 12 34 24 49 39 51 36 6 23 20 -25 28 -26
4 -54 14 -64 24 -28 28 -134 80 -162 80 -8 0 -18 3 -22 7 -4 4 -28 6 -54 6
-26 -1 -39 1 -29 3 9 3 17 10 17 15 0 14 -28 11 -37 -4z m142 -80 c17 -9 49
-24 71 -33 37 -15 43 -22 48 -58 6 -33 1 -51 -26 -105 -46 -92 -90 -133 -165
-153 -105 -30 -197 -40 -240 -29 -38 11 -112 58 -113 73 0 4 18 43 41 85 l41
78 -6 -49 c-3 -28 -11 -53 -18 -57 -18 -12 18 -59 45 -59 13 0 32 -6 42 -14
13 -10 28 -11 49 -5 17 5 32 9 33 9 1 0 0 -7 -3 -15 -4 -8 -1 -15 5 -15 6 0
11 4 11 9 0 5 8 12 18 15 14 5 17 14 14 39 -2 22 3 39 16 55 19 22 39 31 27
12 -3 -5 -2 -10 4 -10 20 0 33 77 20 120 -12 39 -20 44 -66 43 -6 0 -14 12
-17 28 -3 19 -12 29 -23 29 -15 0 -15 2 3 15 25 19 148 14 189 -8z m-295 -156
c0 -6 -4 -13 -10 -16 -5 -3 -10 1 -10 9 0 9 5 16 10 16 6 0 10 -4 10 -9z"/>
<path d="M4140 3836 c0 -2 7 -7 16 -10 8 -3 12 -2 9 4 -6 10 -25 14 -25 6z"/>
<path d="M4260 3830 c0 -6 7 -10 15 -10 8 0 15 2 15 4 0 2 -7 6 -15 10 -8 3
-15 1 -15 -4z"/>
<path d="M4170 3790 c0 -5 5 -10 11 -10 5 0 7 5 4 10 -3 6 -8 10 -11 10 -2 0
-4 -4 -4 -10z"/>
<path d="M2485 3735 c-95 -14 -100 -16 -187 -72 -36 -24 -74 -43 -84 -43 -9 0
-14 -3 -11 -7 4 -3 2 -11 -3 -18 -15 -18 5 -71 44 -117 20 -23 36 -47 36 -55
0 -7 12 -20 28 -30 15 -9 43 -29 62 -44 19 -15 53 -36 76 -48 48 -25 187 -52
206 -40 7 5 27 9 45 9 17 0 53 10 80 22 86 39 115 47 132 38 9 -5 24 -11 33
-14 10 -3 24 -21 32 -39 8 -19 19 -38 25 -42 9 -5 9 -11 2 -19 -8 -10 1 -23
37 -53 86 -72 101 -62 62 39 -11 29 -20 67 -20 83 -1 45 -32 105 -84 160 -46
49 -55 62 -36 50 6 -3 10 -2 10 4 0 5 -21 27 -47 48 -25 21 -80 71 -120 110
-41 40 -84 75 -96 78 -47 11 -146 11 -222 0z m183 -67 c22 -18 14 -66 -13 -84
-31 -20 -52 -13 -66 23 -6 15 -14 35 -18 43 -15 30 -1 42 43 35 22 -4 47 -12
54 -17z m141 -81 c71 -68 94 -108 85 -153 -13 -69 -182 -146 -299 -136 -50 4
-72 13 -144 60 -47 30 -105 70 -128 89 -50 40 -81 97 -66 121 15 24 30 25 36
2 4 -14 10 -18 23 -13 14 5 16 2 10 -20 -3 -14 -2 -28 4 -32 5 -3 7 -11 4 -18
-4 -13 34 -42 43 -33 8 8 43 -13 43 -26 0 -7 -5 -6 -15 2 -8 6 -19 8 -26 5
-15 -10 85 -72 129 -80 42 -8 73 2 70 22 -2 10 7 19 26 24 30 8 76 46 76 62 0
6 7 18 15 27 21 23 36 78 24 86 -5 3 -7 17 -4 32 3 16 -2 33 -13 45 -17 19
-16 19 15 6 17 -8 59 -40 92 -72z m172 -207 c10 0 24 -19 38 -51 26 -64 27
-84 2 -44 -10 17 -33 43 -50 59 -17 17 -31 37 -31 45 0 12 3 12 12 3 7 -7 20
-12 29 -12z"/>
<path d="M4365 3720 c-3 -5 1 -10 9 -10 9 0 16 5 16 10 0 6 -4 10 -9 10 -6 0
-13 -4 -16 -10z"/>
<path d="M2276 3684 c-9 -24 -7 -28 9 -14 17 14 20 30 6 30 -5 0 -12 -7 -15
-16z"/>
<path d="M3583 3658 c-1 -18 -6 -67 -12 -108 -6 -46 -7 -78 -1 -84 16 -16 23
21 16 79 -3 32 -2 56 4 60 12 7 14 85 3 85 -5 0 -9 -15 -10 -32z"/>
<path d="M4425 3680 c4 -6 11 -7 17 -4 6 4 14 0 19 -7 7 -11 9 -10 9 4 0 12
-8 17 -26 17 -14 0 -23 -4 -19 -10z"/>
<path d="M4880 3661 c0 -5 7 -12 16 -15 14 -5 15 -4 4 9 -14 17 -20 19 -20 6z"/>
<path d="M4495 3650 c3 -5 10 -10 16 -10 5 0 9 5 9 10 0 6 -7 10 -16 10 -8 0
-12 -4 -9 -10z"/>
<path d="M4865 3570 c-3 -5 1 -10 10 -10 9 0 13 5 10 10 -3 6 -8 10 -10 10 -2
0 -7 -4 -10 -10z"/>
<path d="M4505 3560 c-3 -5 -1 -10 4 -10 6 0 11 5 11 10 0 6 -2 10 -4 10 -3 0
-8 -4 -11 -10z"/>
<path d="M3580 3401 c0 -11 4 -22 9 -25 4 -3 6 6 3 19 -5 30 -12 33 -12 6z"/>
<path d="M4300 3340 c-13 -8 -12 -10 3 -10 9 0 17 5 17 10 0 12 -1 12 -20 0z"/>
<path d="M3630 3140 c0 -5 5 -10 11 -10 5 0 7 5 4 10 -3 6 -8 10 -11 10 -2 0
-4 -4 -4 -10z"/>
<path d="M3110 3075 c0 -12 24 -55 32 -55 9 0 10 7 2 38 -4 12 -13 22 -20 22
-8 0 -14 -2 -14 -5z"/>
<path d="M3660 2915 c0 -8 9 -42 21 -76 12 -33 19 -62 16 -65 -2 -3 -43 -12
-91 -21 -81 -16 -90 -16 -153 1 -86 22 -136 12 -194 -38 -49 -41 -59 -44 -59
-16 0 29 -28 25 -36 -5 -9 -35 3 -89 26 -118 14 -18 37 -29 75 -37 l55 -11 16
-57 c14 -50 41 -96 94 -161 15 -19 20 -157 6 -179 -8 -14 -75 -45 -171 -79
-38 -14 -95 -34 -125 -45 -30 -11 -75 -20 -100 -20 -54 0 -80 -6 -80 -19 0 -5
30 -9 68 -9 68 1 86 5 295 84 54 20 102 34 106 31 5 -2 53 -6 107 -9 68 -3
118 -11 159 -26 82 -29 215 -38 246 -16 13 9 21 16 19 16 -3 1 -41 2 -85 4
-56 2 -100 11 -145 28 -74 29 -149 49 -199 53 -48 5 -56 18 -53 88 1 34 -1 75
-6 91 -7 27 -3 35 46 85 30 31 72 84 94 118 33 52 46 64 78 73 35 9 41 16 51
53 16 57 15 69 -26 171 -19 49 -35 98 -35 108 0 10 -4 18 -10 18 -5 0 -10 -7
-10 -15z m-355 -291 c-28 -30 -31 -40 -12 -47 6 -2 9 -7 5 -11 -3 -4 -25 5
-49 19 -37 24 -40 29 -25 37 10 6 26 8 36 5 11 -3 27 1 37 9 30 22 34 16 8
-12z m251 -51 c0 -10 5 -17 12 -15 6 1 12 -7 12 -18 0 -21 -24 -27 -49 -11
-12 8 -13 14 -3 35 13 30 30 35 28 9z m-121 -39 c15 -8 21 -23 23 -59 5 -77
-4 -85 -39 -30 -16 26 -39 49 -49 52 -11 3 -20 7 -20 10 0 9 55 51 60 45 3 -4
14 -12 25 -18z"/>
<path d="M4341 2324 c-22 -37 -26 -53 -13 -55 4 0 32 -2 62 -5 54 -4 164 -28
268 -57 28 -8 52 -12 52 -8 0 3 -28 34 -62 68 l-63 62 -95 16 c-126 20 -125
20 -149 -21z"/>
<path d="M4283 2220 c-14 -22 -23 -19 102 -40 39 -7 124 -26 190 -42 173 -44
178 -44 173 -22 -2 10 -15 24 -29 31 -36 18 -329 75 -356 70 -12 -2 -20 0 -17
4 3 5 -1 9 -10 9 -8 0 -20 2 -28 5 -7 3 -19 -4 -25 -15z"/>
<path d="M2226 2132 c-7 -12 71 -92 89 -92 24 0 18 17 -21 60 -35 39 -57 49
-68 32z"/>
<path d="M2330 2001 c0 -5 7 -16 15 -25 8 -8 15 -19 15 -25 0 -5 6 -14 14 -18
8 -4 16 -19 18 -33 4 -32 26 -33 56 -2 27 29 27 34 0 58 -12 10 -18 13 -14 7
4 -7 5 -13 3 -13 -16 0 -52 28 -52 40 0 9 -11 16 -27 18 -16 2 -28 -1 -28 -7z"/>
<path d="M1665 1900 c-4 -6 12 -18 37 -28 23 -9 72 -31 107 -50 54 -28 66 -31
78 -20 11 12 -1 21 -84 61 -100 48 -127 55 -138 37z"/>
</g>
</svg>
