<svg 
 xmlns="http://www.w3.org/2000/svg"
 xmlns:xlink="http://www.w3.org/1999/xlink"
 width="23.704cm" height="3.422cm">
<defs>
<linearGradient id="PSgrad_0" x1="99.863%" x2="0%" y1="5.234%" y2="0%">
  <stop offset="77%" stop-color="rgb(122,124,235)" stop-opacity="1" />
  <stop offset="100%" stop-color="rgb(202,203,255)" stop-opacity="1" />
</linearGradient>

</defs>
<path fill-rule="evenodd"  fill="url(#PSgrad_0)"
 d="M842.0,53.296 C842.0,53.296 674.537,57.379 549.0,70.296 C423.462,83.214 253.928,100.639 171.0,96.296 C88.71,91.953 62.362,86.485 49.999,82.296 C37.637,78.107 2.575,60.31 0.999,43.296 C0.575,26.562 9.694,11.361 20.999,10.296 C32.305,9.231 125.567,38.41 227.0,31.296 C328.432,24.552 524.398,2.10 583.0,0.296 C641.601,-1.417 800.702,5.24 838.0,20.296 C834.380,27.699 822.108,40.939 842.0,53.296 Z"/>
</svg>