<svg
        xmlns="http://www.w3.org/2000/svg"
        width="15.468cm" height="3.175cm">
    <defs>
        <linearGradient id="PSgrad_0" x1="99.863%" x2="0%" y1="0%" y2="5.234%">
            <stop offset="68%" stop-color="rgb(122,124,235)" stop-opacity="1" />
            <stop offset="100%" stop-color="rgb(203,204,255)" stop-opacity="1" />
        </linearGradient>

    </defs>
    <path fill-rule="evenodd"  fill="url(#PSgrad_0)"
          d="M0.0,29.0 C0.0,29.0 142.0,8.500 203.0,6.0 C264.0,3.500 333.0,9.500 366.999,10.0 C400.999,10.499 495.999,-5.499 518.999,2.0 C541.999,9.500 548.999,22.500 548.999,34.0 C548.999,45.500 548.999,68.499 529.999,72.0 C511.0,75.500 486.0,76.499 461.0,80.999 C435.999,85.499 382.999,91.499 337.0,88.999 C290.999,86.499 159.0,71.499 122.0,67.0 C84.999,62.499 4.999,50.999 4.999,50.999 C4.999,50.999 18.0,40.0 0.0,29.0 Z"/>
</svg>