<svg
        xmlns="http://www.w3.org/2000/svg"
        xmlns:xlink="http://www.w3.org/1999/xlink"
        width="19.226cm" height="2.117cm">
    <defs>
        <linearGradient id="PSgrad_0" x1="99.863%" x2="0%" y1="5.234%" y2="0%">
            <stop offset="77%" stop-color="rgb(122,124,235)" stop-opacity="1" />
            <stop offset="100%" stop-color="rgb(202,203,255)" stop-opacity="1" />
        </linearGradient>

    </defs>
    <path fill-rule="evenodd"  fill="url(#PSgrad_0)"
          d="M2.999,21.999 C2.999,21.999 88.999,18.500 136.999,14.999 C185.0,11.499 185.999,4.499 229.0,3.0 C272.0,1.499 323.0,5.500 351.0,4.999 C379.0,4.499 434.0,0.500 459.0,0.999 C484.0,2.499 540.999,5.500 543.0,17.999 C545.0,30.499 548.0,51.499 515.0,53.0 C482.0,54.500 451.0,47.499 421.0,49.0 C390.999,50.500 357.0,51.499 334.999,52.0 C312.999,52.499 270.999,46.500 251.999,47.0 C233.0,47.499 185.0,55.500 170.999,57.0 C157.0,58.500 114.999,62.500 69.0,53.999 C22.999,45.500 0.0,40.0 0.0,40.0 C0.0,40.0 11.999,30.0 2.999,21.999 Z"/>
</svg>